#N canvas 0 0 1334 698 10;
#X declare -path ./objects;
#X declare -path ./samples;
#N canvas 442 199 668 473 amix 0;
#X obj 290 66 hsl 128 15 0 1 0 0 empty empty In1 -24 7 0 10 -262144
-1 -1 5860 1;
#X obj 290 83 hsl 128 15 0 1 0 0 empty empty In2 -24 7 0 10 -262144
-1 -1 12700 1;
#X obj 290 100 hsl 128 15 0 1 0 0 empty empty In3 -24 7 0 10 -262144
-1 -1 9260 1;
#X obj 49 194 *~;
#X obj 49 42 inlet~;
#X obj 92 50 inlet~;
#X obj 135 59 inlet~;
#X obj 92 202 *~;
#X obj 135 211 *~;
#X obj 49 343 outlet~;
#X obj 290 117 hsl 128 15 0 1 0 0 empty empty In4 -24 7 0 10 -262144
-1 -1 10160 1;
#X obj 178 65 inlet~;
#X obj 178 217 *~;
#X obj 486 47 loadbang;
#X msg 486 69 0.8;
#X obj 49 287 throw~ \$0_mix;
#X obj 49 287 throw~ \$0_mix;
#X obj 92 270 throw~ \$0_mix;
#X obj 135 253 throw~ \$0_mix;
#X obj 178 236 throw~ \$0_mix;
#X obj 48 322 catch~ \$0_mix;
#X msg 64 154 \$1 50;
#X msg 107 161 \$1 50;
#X msg 152 170 \$1 50;
#X msg 195 177 \$1 50;
#X obj 64 174 line~;
#X obj 107 181 line~;
#X obj 152 190 line~;
#X obj 195 197 line~;
#X connect 0 0 21 0;
#X connect 1 0 22 0;
#X connect 2 0 23 0;
#X connect 3 0 15 0;
#X connect 4 0 3 0;
#X connect 5 0 7 0;
#X connect 6 0 8 0;
#X connect 7 0 17 0;
#X connect 8 0 18 0;
#X connect 10 0 24 0;
#X connect 11 0 12 0;
#X connect 12 0 19 0;
#X connect 13 0 14 0;
#X connect 14 0 0 0;
#X connect 14 0 10 0;
#X connect 14 0 2 0;
#X connect 14 0 1 0;
#X connect 20 0 9 0;
#X connect 21 0 25 0;
#X connect 22 0 26 0;
#X connect 23 0 27 0;
#X connect 24 0 28 0;
#X connect 25 0 3 1;
#X connect 26 0 7 1;
#X connect 27 0 8 1;
#X connect 28 0 12 1;
#X coords 0 -1 1 1 180 90 1 255 49;
#X restore 678 411 pd amix;
#N canvas 442 199 450 300 load 0;
#X obj 159 18 loadbang;
#X obj 12 18 declare -path ./objects;
#X obj 14 38 declare -path ./samples;
#X msg 159 38 \; pd dsp 1;
#X connect 0 0 3 0;
#X restore 483 22 pd load;
#X obj 60 107 tseq;
#X obj 25 28 met;
#X obj 60 175 s sample1;
#X obj 55 263 s sample2;
#X obj 446 58 r sample1;
#X obj 647 59 r sample2;
#X obj 849 59 r sample3;
#X obj 1050 59 r sample4;
#X obj 50 352 s sample3;
#X obj 41 440 s sample4;
#X obj 770 600 record_mono~;
#X obj 446 172 samplecrusher~;
#X obj 446 313 resonate~;
#X obj 659 599 output~;
#X obj 647 173 samplecrusher~;
#X obj 849 172 samplecrusher~;
#X obj 1050 172 samplecrusher~;
#X obj 647 233 bitcrusher~;
#X obj 849 233 bitcrusher~;
#X obj 1050 233 bitcrusher~;
#X obj 647 313 resonate~;
#X obj 849 313 resonate~;
#X obj 1050 313 resonate~;
#X obj 55 195 tseq;
#X obj 50 284 tseq;
#X obj 41 372 tseq;
#X obj 447 234 bitcrusher~;
#X obj 446 78 sampler_ds 1;
#X text 85 11 Metronome;
#X text 92 82 Sequences;
#X obj 647 79 sampler_ds 2;
#X obj 849 79 sampler_ds 3;
#X obj 1050 79 sampler_ds 4;
#X obj 452 417 easyscope~;
#X obj 1082 417 easyscope~;
#X obj 886 420 easyscope~;
#X obj 550 415 easyscope~;
#X obj 678 556 glitch~;
#X obj 725 507 ctlin;
#X connect 0 0 39 0;
#X connect 2 0 4 0;
#X connect 3 0 2 0;
#X connect 3 0 25 0;
#X connect 3 0 26 0;
#X connect 3 0 27 0;
#X connect 6 0 29 0;
#X connect 7 0 32 0;
#X connect 8 0 33 0;
#X connect 9 0 34 0;
#X connect 13 0 28 0;
#X connect 14 0 0 0;
#X connect 14 0 35 0;
#X connect 16 0 19 0;
#X connect 17 0 20 0;
#X connect 18 0 21 0;
#X connect 19 0 22 0;
#X connect 20 0 23 0;
#X connect 21 0 24 0;
#X connect 22 0 0 1;
#X connect 22 0 38 0;
#X connect 23 0 0 2;
#X connect 23 0 37 0;
#X connect 24 0 0 3;
#X connect 24 0 36 0;
#X connect 25 0 5 0;
#X connect 26 0 10 0;
#X connect 27 0 11 0;
#X connect 28 0 14 0;
#X connect 29 0 13 0;
#X connect 32 0 16 0;
#X connect 33 0 17 0;
#X connect 34 0 18 0;
#X connect 39 0 15 0;
#X connect 39 0 15 1;
#X connect 40 0 39 1;
