#N canvas 442 179 872 401 10;
#X obj 163 139 inlet~;
#X obj 194 166 +~ 1;
#X obj 194 188 /~ 2;
#X obj 194 210 *~ 8;
#X obj 240 178 inlet;
#X obj 194 231 round~ 1;
#X obj 194 253 /~ 8;
#X obj 194 275 *~ 2;
#X obj 194 297 -~ 1;
#X obj 163 338 outlet~;
#X obj 49 71 hradio 15 0 0 8 empty empty Bit Depth 66 -10 0 10 -262144
-1 -1 0;
#X obj 49 141 + 8;
#X obj 163 317 crossfader~;
#X obj 53 91 hsl 115 15 0 1 0 0 empty empty Wet/Dry 7 20 0 10 -262144
-1 -1 11400 1;
#X obj 214 66 loadbang;
#X msg 214 88 0;
#X connect 0 0 1 0;
#X connect 0 0 12 0;
#X connect 1 0 2 0;
#X connect 2 0 3 0;
#X connect 3 0 5 0;
#X connect 4 0 3 1;
#X connect 4 0 6 1;
#X connect 5 0 6 0;
#X connect 6 0 7 0;
#X connect 7 0 8 0;
#X connect 8 0 12 1;
#X connect 10 0 11 0;
#X connect 11 0 3 1;
#X connect 11 0 6 1;
#X connect 12 0 9 0;
#X connect 13 0 12 2;
#X connect 14 0 15 0;
#X connect 15 0 13 0;
#X coords 0 -1 1 1 134 75 1 43 46;
