#N canvas 0 0 1334 698 10;
#X obj 35 179 metro 300;
#X obj 71 97 hsl 200 20 50 12000 1 0 empty empty empty -2 -8 0 10 -262144
-33 -1 0 1;
#X obj 49 97 tgl 20 0 empty empty empty 17 7 0 10 -262144 -33 -1 0
1;
#X obj 35 201 outlet;
#X obj 114 205 phasor~;
#X floatatom 278 99 8 0 0 1 ms - -, f 8;
#X obj 442 184 /;
#X floatatom 346 99 8 0 0 1 BPM - -, f 8;
#X obj 442 206 sig~;
#X obj 114 227 outlet~;
#X obj 86 34 inlet;
#X obj 370 64 inlet;
#X obj 442 162 swap 60000;
#X connect 0 0 3 0;
#X connect 1 0 0 1;
#X connect 1 0 5 0;
#X connect 1 0 12 0;
#X connect 2 0 0 0;
#X connect 4 0 9 0;
#X connect 6 0 7 0;
#X connect 6 0 8 0;
#X connect 8 0 4 0;
#X connect 10 0 2 0;
#X connect 11 0 1 0;
#X connect 12 0 6 0;
#X connect 12 1 6 1;
#X coords 0 -1 1 1 377 26 2 46 94;
