#N canvas 442 199 450 300 10;
#X obj 37 92 inlet~;
#X obj 37 114 freeverb~;
#X obj 37 176 outlet~;
#X obj 37 136 mixer~ 2;
#X obj 232 75 hsl 80 15 0 1 0 0 empty empty Wet 85 7 0 10 -262144 -1
-1 1580 1;
#X obj 232 92 hsl 80 15 0 1 0 0 empty empty Dry 85 7 0 10 -262144 -1
-1 6320 1;
#X obj 232 109 hsl 80 15 0 1 0 0 empty empty Size 85 7 0 10 -262144
-1 -1 2370 1;
#X obj 122 19 loadbang;
#X msg 122 41 0.2 0.8 0.3;
#X obj 122 63 unpack f f f;
#X msg 150 103 wet \$1;
#X msg 150 124 dry \$1;
#X msg 150 145 roomsize \$1;
#X connect 0 0 1 0;
#X connect 0 0 1 1;
#X connect 1 0 3 0;
#X connect 1 1 3 1;
#X connect 3 0 2 0;
#X connect 4 0 10 0;
#X connect 5 0 11 0;
#X connect 6 0 12 0;
#X connect 7 0 8 0;
#X connect 8 0 9 0;
#X connect 9 0 4 0;
#X connect 9 1 5 0;
#X connect 9 2 6 0;
#X connect 10 0 1 0;
#X connect 11 0 1 0;
#X connect 12 0 1 0;
#X coords 0 -1 1 1 128 70 1 226 58;
