#N canvas -7 0 1190 716 10;
#N canvas 0 0 450 300 (subpatch) 0;
#X array \$0_array 15559 float 2;
#X coords 0 1 15559 -1 100 50 1 0 0;
#X restore 122 150 graph;
#X obj 224 150 bng 15 250 50 0 empty empty Load 17 7 0 10 -262144 -1
-1;
#X obj 432 165 openpanel;
#X obj 224 168 bng 15 250 50 0 empty empty Play 17 7 0 10 -262144 -1
-1;
#X obj 95 45 inlet;
#X obj 310 291 outlet~;
#X obj 224 186 bng 15 250 50 0 empty empty Clear 17 7 0 10 -262144
-1 -1;
#X msg 151 264 \; \$0_array const 0;
#X obj 830 330 loadbang;
#X text 132 44 Triggers sample play;
#X msg 820 356 read -resize C:/Users/David/Composing/PurrData_Patches/spico/samples/Z97
Bag Squish crunch.wav adddollsym 0_array;
#X obj 432 294 soundfiler;
#X msg 432 254 read -resize C:/Users/David/Composing/PurrData_Patches/spico/samples/Z97bagSquishCrunch.wav
1053_array;
#X obj 432 184 pack s \$0;
#X msg 820 304 set read -resize \$1 adddollsym 0_array;
#X text 825 286 Old;
#X msg 821 420 read -resize \$1 blue;
#X obj 172 354 array define \$0_potato;
#X obj 172 308 loadbang;
#X msg 172 328 1;
#X obj 370 224 loadbang;
#X msg 432 204 set read -resize \$1 \$2_array \, bang;
#X obj 310 269 tabplay~ \$0_array;
#X connect 1 0 2 0;
#X connect 2 0 13 0;
#X connect 3 0 22 0;
#X connect 4 0 3 0;
#X connect 6 0 7 0;
#X connect 8 0 10 0;
#X connect 12 0 11 0;
#X connect 13 0 21 0;
#X connect 14 0 10 0;
#X connect 18 0 19 0;
#X connect 19 0 17 0;
#X connect 20 0 12 0;
#X connect 21 0 12 0;
#X connect 22 0 5 0;
#X coords 0 -1 1 1 165 89 1 117 119;
