#N canvas 0 0 1334 695 10;
#X obj 328 343 tgl 20 0 \$0-NOTHIN \$0-NUTTIN 1 10 10 0 10 -262144
-1 -1 0 1;
#X obj 1022 383 outlet;
#X obj 349 343 tgl 20 0 \$0-NOTHIN \$0-NUTTIN 2 10 10 0 10 -262144
-1 -1 0 1;
#X obj 370 343 tgl 20 0 \$0-NOTHIN \$0-NUTTIN 3 10 10 0 10 -262144
-1 -1 0 1;
#X obj 391 343 tgl 20 0 \$0-NOTHIN \$0-NUTTIN 4 10 10 0 10 -262144
-1 -1 0 1;
#X obj 412 343 tgl 20 0 \$0-NOTHIN \$0-NUTTIN 5 10 10 0 10 -262144
-1 -1 0 1;
#X obj 433 343 tgl 20 0 \$0-NOTHIN \$0-NUTTIN 6 10 10 0 10 -262144
-1 -1 0 1;
#X obj 454 343 tgl 20 0 \$0-NOTHIN \$0-NUTTIN 7 10 10 0 10 -262144
-1 -1 0 1;
#X obj 475 343 tgl 20 0 \$0-NOTHIN \$0-NUTTIN 8 10 10 0 10 -262144
-1 -1 0 1;
#X obj 496 343 tgl 20 0 \$0-NOTHIN \$0-NUTTIN 9 10 10 0 10 -262144
-1 -1 0 1;
#X obj 517 343 tgl 20 0 \$0-NOTHIN \$0-NUTTIN 10 7 10 0 10 -262144
-1 -1 0 1;
#X obj 538 343 tgl 20 0 \$0-NOTHIN \$0-NUTTIN 11 7 10 0 10 -262144
-1 -1 0 1;
#X obj 559 343 tgl 20 0 \$0-NOTHIN \$0-NUTTIN 12 7 10 0 10 -262144
-1 -1 0 1;
#X obj 580 343 tgl 20 0 \$0-NOTHIN \$0-NUTTIN 13 7 10 0 10 -262144
-1 -1 0 1;
#X obj 601 343 tgl 20 0 \$0-NOTHIN \$0-NUTTIN 14 7 10 0 10 -262144
-1 -1 0 1;
#X obj 622 343 tgl 20 0 \$0-NOTHIN \$0-NUTTIN 15 7 10 0 10 -262144
-1 -1 0 1;
#X obj 643 343 tgl 20 0 \$0-NOTHIN \$0-NUTTIN 16 7 10 0 10 -262144
-1 -1 0 1;
#X obj 355 305 unpack f f f f f f f f f f f f f f f f;
#X obj 1022 340 tabread \$0-tgls;
#X obj 1022 361 sel 1;
#X obj 635 504 tabwrite \$0-tgls;
#X obj 636 522 table \$0-tgls 16;
#X obj 332 423 t f b;
#X msg 358 446 0;
#X obj 380 420 t f b;
#X obj 420 419 t f b;
#X obj 465 420 t f b;
#X obj 504 418 t f b;
#X obj 552 415 t f b;
#X obj 592 414 t f b;
#X obj 637 415 t f b;
#X obj 675 417 t f b;
#X obj 723 414 t f b;
#X obj 763 413 t f b;
#X obj 808 414 t f b;
#X obj 851 416 t f b;
#X obj 899 413 t f b;
#X obj 939 412 t f b;
#X obj 984 413 t f b;
#X msg 406 443 1;
#X msg 446 442 2;
#X msg 480 443 3;
#X msg 533 444 4;
#X msg 578 438 5;
#X msg 621 441 6;
#X msg 652 438 7;
#X msg 701 440 8;
#X msg 749 437 9;
#X msg 789 436 10;
#X msg 823 437 11;
#X msg 877 439 12;
#X msg 925 436 13;
#X msg 965 435 14;
#X msg 999 436 15;
#X obj 57 54 hsl 29 160 0 127 0 0 empty empty empty -2 -8 0 10 -262144
-1 -1 0 1;
#X obj 1066 386 outlet;
#X obj 970 180 inlet;
#X obj 652 389 bng 12 250 50 0 empty empty Clear -32 4 0 10 -262144
-1 -1;
#X msg 716 235 0 0 0 0 0 0 0 0 0 0 0 0 0 0 0 0;
#X obj 328 365 hradio 21 0 0 16 empty empty empty 0 -8 0 10 -262144
-1 -1 2;
#X obj 390 389 bng 12 250 50 0 empty empty Reset 13 5 0 10 -262144
-1 -1;
#X obj 329 389 bng 12 250 50 0 empty empty Advance 13 4 0 10 -262144
-1 -1;
#X obj 1057 236 f;
#X obj 1057 256 + 1;
#X obj 1057 276 % 16;
#X msg 822 331 14;
#X connect 0 0 22 0;
#X connect 2 0 24 0;
#X connect 3 0 25 0;
#X connect 4 0 26 0;
#X connect 5 0 27 0;
#X connect 6 0 28 0;
#X connect 7 0 29 0;
#X connect 8 0 30 0;
#X connect 9 0 31 0;
#X connect 10 0 32 0;
#X connect 11 0 33 0;
#X connect 12 0 34 0;
#X connect 13 0 35 0;
#X connect 14 0 36 0;
#X connect 15 0 37 0;
#X connect 16 0 38 0;
#X connect 17 0 0 0;
#X connect 17 1 2 0;
#X connect 17 2 3 0;
#X connect 17 3 4 0;
#X connect 17 4 5 0;
#X connect 17 5 6 0;
#X connect 17 6 7 0;
#X connect 17 7 8 0;
#X connect 17 8 9 0;
#X connect 17 9 10 0;
#X connect 17 10 11 0;
#X connect 17 11 12 0;
#X connect 17 12 13 0;
#X connect 17 13 14 0;
#X connect 17 14 15 0;
#X connect 17 15 16 0;
#X connect 18 0 19 0;
#X connect 19 0 1 0;
#X connect 19 1 55 0;
#X connect 22 0 20 0;
#X connect 22 1 23 0;
#X connect 23 0 20 1;
#X connect 24 0 20 0;
#X connect 24 1 39 0;
#X connect 25 0 20 0;
#X connect 25 1 40 0;
#X connect 26 0 20 0;
#X connect 26 1 41 0;
#X connect 27 0 20 0;
#X connect 27 1 42 0;
#X connect 28 0 20 0;
#X connect 28 1 43 0;
#X connect 29 0 20 0;
#X connect 29 1 44 0;
#X connect 30 0 20 0;
#X connect 30 1 45 0;
#X connect 31 0 20 0;
#X connect 31 1 46 0;
#X connect 32 0 20 0;
#X connect 32 1 47 0;
#X connect 33 0 20 0;
#X connect 33 1 48 0;
#X connect 34 0 20 0;
#X connect 34 1 49 0;
#X connect 35 0 20 0;
#X connect 35 1 50 0;
#X connect 36 0 20 0;
#X connect 36 1 51 0;
#X connect 37 0 20 0;
#X connect 37 1 52 0;
#X connect 38 0 20 0;
#X connect 38 1 53 0;
#X connect 39 0 20 1;
#X connect 40 0 20 1;
#X connect 41 0 20 1;
#X connect 42 0 20 1;
#X connect 43 0 20 1;
#X connect 44 0 20 1;
#X connect 45 0 20 1;
#X connect 46 0 20 1;
#X connect 47 0 20 1;
#X connect 48 0 20 1;
#X connect 49 0 20 1;
#X connect 50 0 20 1;
#X connect 51 0 20 1;
#X connect 52 0 20 1;
#X connect 53 0 20 1;
#X connect 56 0 62 0;
#X connect 57 0 58 0;
#X connect 58 0 17 0;
#X connect 60 0 65 0;
#X connect 61 0 62 0;
#X connect 62 0 63 0;
#X connect 63 0 64 0;
#X connect 64 0 62 1;
#X connect 64 0 18 0;
#X connect 64 0 59 0;
#X connect 65 0 62 0;
#X coords 0 -1 1 1 342 65 2 325 340;
